<?xml version="1.0" encoding="UTF-8" standalone="no"?>
<!DOCTYPE svg PUBLIC "-//W3C//DTD SVG 1.1//EN" "http://www.w3.org/Graphics/SVG/1.1/DTD/svg11.dtd">
<svg width="100%" height="100%" viewBox="0 0 4000 4000" version="1.1" xmlns="http://www.w3.org/2000/svg" xmlns:xlink="http://www.w3.org/1999/xlink" xml:space="preserve" xmlns:serif="http://www.serif.com/" style="fill-rule:evenodd;clip-rule:evenodd;stroke-linejoin:round;stroke-miterlimit:2;">
    <g transform="matrix(1,0,0,1,-5160,-3082)">
        <g id="favicon" transform="matrix(1,0,0,1,5160,3082)">
            <rect x="0" y="0" width="4000" height="4000" style="fill:none;"/>
            <clipPath id="_clip1">
                <rect x="0" y="0" width="4000" height="4000"/>
            </clipPath>
            <g clip-path="url(#_clip1)">
                <g transform="matrix(1.82044,0,0,1.82044,-1011.94,-1035.1)">
                    <g>
                        <g transform="matrix(1.54542,0,0,1.54542,109.083,109.083)">
                            <path d="M289.109,638.177L578.83,1180.95L347.828,693.188C347.828,693.188 812.008,755.107 999.846,934.398C999.846,934.398 897.38,698.604 289.109,638.177Z" style="fill-rule:nonzero;stroke:black;stroke-width:0.36px;"/>
                        </g>
                        <g>
                            <g transform="matrix(1.39653,-0.374199,-0.374199,-1.39653,1473.69,3524.69)">
                                <path d="M256.646,474.596C256.646,474.596 265.691,534.477 319.414,747.676C383.088,1000.37 513.145,1520.35 489.382,1343.18C483.978,1302.89 514.082,1317.72 562.742,1330.58C629.32,1348.16 731.037,1376.34 827.754,1385.66C1028.42,1405 1289.96,1395 1289.96,1395C1259.56,1382.23 912.722,609.246 912.722,609.246L256.646,474.596Z" style="fill-rule:nonzero;stroke:black;stroke-width:0.38px;"/>
                            </g>
                            <g transform="matrix(-1.39653,-0.374199,0.374199,-1.39653,1818.27,3524.69)">
                                <path d="M245.245,477.651C245.245,477.651 265.691,534.477 319.414,747.676C383.088,1000.37 514.341,1512.16 490.578,1334.99C484.748,1291.52 514.749,1315.37 570.117,1333.38C636.272,1354.9 736.621,1376.88 827.754,1385.66C1028.42,1405 1278.56,1398.05 1278.56,1398.05C1283.31,1415.82 912.722,609.246 912.722,609.246L245.245,477.651Z" style="fill-rule:nonzero;stroke:black;stroke-width:0.38px;"/>
                            </g>
                        </g>
                        <g transform="matrix(1.54542,0,0,1.54542,109.083,109.083)">
                            <path d="M510.583,538.984L510.583,638.177C819.568,677.797 990.021,854.521 990.021,854.521C865.458,634.755 510.583,538.984 510.583,538.984Z" style="fill-rule:nonzero;stroke:black;stroke-width:0.36px;"/>
                        </g>
                        <g transform="matrix(1.54542,0,0,1.54542,109.083,109.083)">
                            <path d="M692.156,486.537L692.156,574.328C888.547,653.568 989.734,801.787 989.734,801.787C920.469,596.844 692.156,486.537 692.156,486.537Z" style="fill-rule:nonzero;stroke:black;stroke-width:0.36px;"/>
                        </g>
                        <g transform="matrix(1.54542,0,0,1.54542,109.083,109.083)">
                            <path d="M1710.88,638.177C1102.61,698.604 999.846,934.398 999.846,934.398C1187.68,755.107 1652.16,693.188 1652.16,693.188L1551.54,1151.8L1710.88,638.177Z" style="fill-rule:nonzero;stroke:black;stroke-width:0.36px;"/>
                        </g>
                        <g transform="matrix(1.05561,0,0,1.05561,583.028,569.072)">
                            <g transform="matrix(0.75,0,0,0.75,274.18,348.359)">
                                <clipPath id="_clip2">
                                    <rect x="-0.003" y="-188.557" width="1935.52" height="582.153"/>
                                </clipPath>
                                <g clip-path="url(#_clip2)">
                                    <path d="M967.761,0C433.281,0 -0.003,433.278 -0.003,967.758C-0.003,1502.24 433.281,1935.52 967.761,1935.52C1502.24,1935.52 1935.52,1502.24 1935.52,967.758C1935.52,433.278 1502.24,0 967.761,0Z" style="fill:none;fill-rule:nonzero;stroke:black;stroke-width:84.03px;stroke-linejoin:miter;stroke-miterlimit:4;"/>
                                </g>
                            </g>
                            <g transform="matrix(0.587918,0,0,0.587918,446.057,472.024)">
                                <clipPath id="_clip3">
                                    <rect x="-0.003" y="-450.884" width="1935.52" height="790.838"/>
                                </clipPath>
                                <g clip-path="url(#_clip3)">
                                    <path d="M967.761,0C433.281,0 -0.003,433.278 -0.003,967.758C-0.003,1502.24 433.281,1935.52 967.761,1935.52C1502.24,1935.52 1935.52,1502.24 1935.52,967.758C1935.52,433.278 1502.24,0 967.761,0Z" style="fill:none;fill-rule:nonzero;stroke:black;stroke-width:78.1px;stroke-linejoin:miter;stroke-miterlimit:4;"/>
                                </g>
                            </g>
                            <g transform="matrix(0.612199,0,0,0.612199,-4409.68,-5603.91)">
                                <path d="M8861,9153L9001.52,9426.91L8861,9700.82L8720.48,9426.91L8861,9153Z" style="stroke:black;stroke-width:0.85px;stroke-linecap:round;stroke-miterlimit:1.5;"/>
                            </g>
                            <g transform="matrix(1,0,0,1.32948,15.0187,-84.8819)">
                                <path d="M970.642,264.62L1029.36,264.62L1047.72,727.465L1000,766.3L952.276,727.465L970.642,264.62Z" style="fill-rule:nonzero;stroke:black;stroke-width:0.44px;"/>
                            </g>
                        </g>
                        <g transform="matrix(1.54542,0,0,1.54542,109.083,109.083)">
                            <path d="M1489.69,538.984C1489.69,538.984 1134.82,634.469 1010.25,854.234C1010.25,854.234 1180.71,677.51 1489.69,637.891L1489.69,538.984Z" style="fill-rule:nonzero;stroke:black;stroke-width:0.36px;"/>
                        </g>
                        <g transform="matrix(1.54542,0,0,1.54542,109.083,109.083)">
                            <path d="M1307.83,574.328L1307.83,486.537C1307.83,486.537 1079.52,596.844 1010.25,801.787C1010.25,801.787 1111.44,653.568 1307.83,574.328Z" style="fill-rule:nonzero;stroke:black;stroke-width:0.36px;"/>
                        </g>
                    </g>
                </g>
            </g>
        </g>
    </g>
</svg>
