<?xml version="1.0" encoding="UTF-8" standalone="no"?>
<!DOCTYPE svg PUBLIC "-//W3C//DTD SVG 1.1//EN" "http://www.w3.org/Graphics/SVG/1.1/DTD/svg11.dtd">
<svg width="100%" height="100%" viewBox="0 0 4000 4000" version="1.1" xmlns="http://www.w3.org/2000/svg" xmlns:xlink="http://www.w3.org/1999/xlink" xml:space="preserve" xmlns:serif="http://www.serif.com/" style="fill-rule:evenodd;clip-rule:evenodd;">
    <rect id="logo" x="0" y="0" width="4000" height="4000" style="fill:none;"/>
    <clipPath id="_clip1">
        <rect id="logo1" serif:id="logo" x="0" y="0" width="4000" height="4000"/>
    </clipPath>
    <g clip-path="url(#_clip1)">
        <g transform="matrix(4.92557,0,0,4.92557,-1115.5,-5088.22)">
            <g>
                <path d="M-119.809,-1055.99L859.027,-684.98C915.435,-663.6 955.626,-624.994 968.519,-579.807L1129.49,-15.624L1860.47,-241.727C1919.02,-259.836 1985.68,-257.939 2042.09,-236.559L3020.93,134.453C3124.79,173.822 3164.97,266.777 3110.66,342.073L2850.06,703.385C2827.36,734.857 2790.34,759.666 2745.28,773.604L1467.45,1168.86L1748.58,2154.16C1758.67,2189.52 1751.28,2226.32 1727.72,2258.12L1361.75,2752.01L203.258,2312.91C146.85,2291.53 106.659,2252.92 93.766,2207.73L-67.208,1643.55L-798.184,1869.65C-856.73,1887.76 -923.398,1885.87 -979.806,1864.48L-2138.3,1425.38L-1787.63,925.687C-1765.05,893.507 -1727.57,868.111 -1681.77,853.942L-405.167,459.07L-686.568,-527.183C-696.491,-561.961 -689.511,-598.157 -666.811,-629.629L-406.21,-990.941C-351.902,-1066.24 -223.676,-1095.36 -119.809,-1055.99Z" style="fill:url(#_Radial2);fill-rule:nonzero;"/>
                <path d="M885.9,-99.216L1864.74,271.796C1921.14,293.177 1961.34,331.783 1974.23,376.97L2135.2,941.152L2866.18,715.049C2924.72,696.94 2991.39,698.837 3047.8,720.218L4026.64,1091.23C4130.5,1130.6 4170.68,1223.55 4116.37,1298.85L3855.77,1660.16C3833.07,1691.63 3796.05,1716.44 3750.99,1730.38L2473.16,2125.63L2754.29,3110.94C2764.38,3146.29 2756.99,3183.09 2733.43,3214.9L2367.46,3708.79L1208.97,3269.68C1152.56,3248.3 1112.37,3209.7 1099.48,3164.51C816.824,2173.87 747.087,1929.46 319.141,429.593C309.218,394.815 316.198,358.619 338.898,327.147L599.499,-34.165C653.807,-109.461 782.033,-138.585 885.9,-99.216Z" style="fill:url(#_Radial3);fill-rule:nonzero;"/>
                <path d="M1597.13,169.784L2575.97,540.796C2632.38,562.177 2672.57,600.783 2685.46,645.97L2846.44,1210.15L3577.41,984.049C3635.96,965.94 3702.63,967.837 3759.03,989.218L4737.87,1360.23C4841.74,1399.6 4881.91,1492.55 4827.61,1567.85L4567,1929.16C4544.3,1960.63 4507.28,1985.44 4462.22,1999.38L3184.4,2394.63L3465.53,3379.94C3475.61,3415.29 3468.23,3452.09 3444.66,3483.9L3078.69,3977.79L1920.2,3538.68C1863.79,3517.3 1823.6,3478.7 1810.71,3433.51L1649.74,2869.33L918.759,3095.43C860.213,3113.54 793.545,3111.64 737.138,3090.26L-421.356,2651.15L-70.688,2151.46C-48.105,2119.28 -10.63,2093.89 35.178,2079.72L1311.78,1684.85L1030.38,698.593C1020.45,663.815 1027.43,627.619 1050.13,596.147L1310.73,234.835C1365.04,159.539 1493.27,130.415 1597.13,169.784Z" style="fill:url(#_Radial4);fill-rule:nonzero;"/>
                <g>
                    <path d="M2395.71,-658.308L3374.55,-287.296C3430.96,-265.915 3471.15,-227.309 3484.04,-182.122L3645.01,382.06L4375.99,155.958C4434.54,137.848 4501.2,139.745 4557.61,161.126L5536.45,532.138C5640.32,571.507 5680.49,664.461 5626.18,739.757L5365.58,1101.07C5342.88,1132.54 5305.86,1157.35 5260.8,1171.29L3982.97,1566.54L4264.1,2551.84C4274.19,2587.2 4266.81,2624 4243.24,2655.81L3877.27,3149.7L2718.78,2710.59C2662.37,2689.21 2622.18,2650.6 2609.29,2605.42L2448.31,2041.24L1717.34,2267.34C1658.79,2285.45 1592.12,2283.55 1535.72,2262.17L377.222,1823.06L727.891,1323.37C742.105,1303.12 762.219,1285.55 786.598,1271.78C800.951,1263.67 816.781,1256.88 833.756,1251.63L2110.35,856.754L1828.95,-129.498C1819.03,-164.277 1826.01,-200.472 1848.71,-231.944L2109.31,-593.257C2163.62,-668.552 2291.85,-697.677 2395.71,-658.308Z" style="fill:url(#_Radial5);fill-rule:nonzero;"/>
                </g>
                <path d="M3059.26,767.932L3310.25,1618.16C3324.72,1667.15 3315.74,1727.88 3285.79,1783.6L2911.89,2479.3L3514.51,2558.36C3562.77,2564.69 3599.15,2596.78 3613.62,2645.77L3864.61,3496C3891.25,3586.22 3837.41,3706.98 3744.37,3765.74L3297.91,4047.66C3259.03,4072.22 3217.48,4082.97 3180.34,4078.1L2126.89,3939.89L1473.9,5154.88C1450.47,5198.48 1415.9,5235.81 1376.24,5260.35L760.412,5641.34L463.348,4635.06C448.884,4586.06 457.863,4525.33 487.81,4469.61L861.713,3773.92L259.094,3694.86C210.828,3688.53 174.448,3656.44 159.984,3607.44L-137.08,2601.17L474.823,2206.89C514.228,2181.5 556.514,2170.3 594.278,2175.25L1646.71,2313.32L2300.33,1097.17C2323.38,1054.28 2357.22,1017.43 2396.11,992.876L2842.57,710.953C2935.61,652.202 3032.62,677.712 3059.26,767.932Z" style="fill:url(#_Radial6);fill-rule:nonzero;"/>
            </g>
        </g>
        <g transform="matrix(1.5474,0,0,1.5474,-560.168,-132.847)">
            <g transform="matrix(1.54542,0,0,1.54542,109.083,109.083)">
                <path d="M289.109,638.177L427.068,908.677L347.828,693.188C347.828,693.188 812.008,755.107 999.846,934.398C999.846,934.398 897.38,698.604 289.109,638.177Z" style="fill:white;fill-rule:nonzero;"/>
            </g>
            <g transform="matrix(1.54542,0,0,1.54542,109.083,109.083)">
                <path d="M510.583,538.984L510.583,638.177C819.568,677.797 990.021,854.521 990.021,854.521C865.458,634.755 510.583,538.984 510.583,538.984Z" style="fill:white;fill-rule:nonzero;"/>
            </g>
            <g transform="matrix(1.54542,0,0,1.54542,109.083,109.083)">
                <path d="M692.156,486.537L692.156,574.328C888.547,653.568 989.734,801.787 989.734,801.787C920.469,596.844 692.156,486.537 692.156,486.537Z" style="fill:white;fill-rule:nonzero;"/>
            </g>
            <g transform="matrix(1.54542,0,0,1.54542,109.083,109.083)">
                <path d="M1710.88,638.177C1102.61,698.604 999.846,934.398 999.846,934.398C1187.68,755.107 1652.16,693.188 1652.16,693.188L1572.92,908.677L1710.88,638.177Z" style="fill:white;fill-rule:nonzero;"/>
            </g>
            <g transform="matrix(1.05561,0,0,1.05561,583.028,569.072)">
                <g transform="matrix(0.75,0,0,0.75,274.18,348.359)">
                    <clipPath id="_clip7">
                        <rect x="-0.003" y="-188.557" width="1935.52" height="582.153"/>
                    </clipPath>
                    <g clip-path="url(#_clip7)">
                        <path d="M967.761,0C433.281,0 -0.003,433.278 -0.003,967.758C-0.003,1502.24 433.281,1935.52 967.761,1935.52C1502.24,1935.52 1935.52,1502.24 1935.52,967.758C1935.52,433.278 1502.24,0 967.761,0Z" style="fill:none;fill-rule:nonzero;stroke:white;stroke-width:85.03px;"/>
                    </g>
                </g>
                <g transform="matrix(0.587918,0,0,0.587918,446.057,472.024)">
                    <clipPath id="_clip8">
                        <rect x="-0.003" y="-450.884" width="1935.52" height="790.838"/>
                    </clipPath>
                    <g clip-path="url(#_clip8)">
                        <path d="M967.761,0C433.281,0 -0.003,433.278 -0.003,967.758C-0.003,1502.24 433.281,1935.52 967.761,1935.52C1502.24,1935.52 1935.52,1502.24 1935.52,967.758C1935.52,433.278 1502.24,0 967.761,0Z" style="fill:none;fill-rule:nonzero;stroke:white;stroke-width:78.1px;"/>
                    </g>
                </g>
                <g transform="matrix(0.612199,0,0,0.612199,-4409.68,-5603.91)">
                    <path d="M8861,9153L9001.52,9426.91L8861,9700.82L8720.48,9426.91L8861,9153Z" style="fill:white;"/>
                </g>
                <g transform="matrix(1,0,0,1.32948,15.0187,-84.8819)">
                    <path d="M970.642,264.62L1029.36,264.62L1047.72,727.465L1000,766.3L952.276,727.465L970.642,264.62Z" style="fill:white;fill-rule:nonzero;"/>
                </g>
            </g>
            <g transform="matrix(1.54542,0,0,1.54542,109.083,109.083)">
                <path d="M1489.69,538.984C1489.69,538.984 1134.82,634.469 1010.25,854.234C1010.25,854.234 1180.71,677.51 1489.69,637.891L1489.69,538.984Z" style="fill:white;fill-rule:nonzero;"/>
            </g>
            <g transform="matrix(1.54542,0,0,1.54542,109.083,109.083)">
                <path d="M1307.83,574.328L1307.83,486.537C1307.83,486.537 1079.52,596.844 1010.25,801.787C1010.25,801.787 1111.44,653.568 1307.83,574.328Z" style="fill:white;fill-rule:nonzero;"/>
            </g>
        </g>
        <g transform="matrix(30.6988,0,0,30.6988,-239620,-95485.1)">
            <path d="M7823.89,3186.4L7830.35,3186.4L7830.35,3191.01L7834.12,3186.4L7841.92,3186.4L7834.9,3195.52L7842.28,3206.34L7834.6,3206.34L7830.35,3200.18L7830.35,3206.34L7823.89,3206.34L7823.89,3186.4Z" style="fill:white;fill-rule:nonzero;"/>
            <path d="M7842.88,3186.4L7854.63,3186.4L7854.63,3191.63L7849.24,3191.63L7849.24,3193.85L7854.54,3193.85L7854.54,3198.81L7849.24,3198.81L7849.24,3201.11L7854.84,3201.11L7854.84,3206.34L7842.88,3206.34L7842.88,3186.4Z" style="fill:white;fill-rule:nonzero;"/>
            <path d="M7856.63,3186.4L7868.38,3186.4L7868.38,3191.63L7863,3191.63L7863,3193.85L7868.29,3193.85L7868.29,3198.81L7863,3198.81L7863,3201.11L7868.59,3201.11L7868.59,3206.34L7856.63,3206.34L7856.63,3186.4Z" style="fill:white;fill-rule:nonzero;"/>
            <path d="M7885.9,3194C7885.9,3195.37 7885.66,3196.54 7885.18,3197.51C7884.7,3198.47 7884.05,3199.26 7883.22,3199.86C7882.39,3200.45 7881.43,3200.89 7880.32,3201.17C7879.22,3201.45 7878.02,3201.59 7876.75,3201.59L7876.75,3206.34L7870.38,3206.34L7870.38,3186.4L7876.75,3186.4C7878.02,3186.4 7879.22,3186.54 7880.32,3186.82C7881.43,3187.1 7882.39,3187.54 7883.22,3188.14C7884.05,3188.73 7884.7,3189.52 7885.18,3190.48C7885.66,3191.45 7885.9,3192.62 7885.9,3194ZM7876.75,3196.21L7877.02,3196.21C7877.85,3196.21 7878.46,3196.01 7878.83,3195.62C7879.2,3195.24 7879.38,3194.69 7879.38,3194C7879.38,3193.3 7879.2,3192.76 7878.83,3192.37C7878.46,3191.98 7877.85,3191.78 7877.02,3191.78L7876.75,3191.78L7876.75,3196.21Z" style="fill:white;fill-rule:nonzero;"/>
            <path d="M7887.39,3186.4L7899.14,3186.4L7899.14,3191.63L7893.76,3191.63L7893.76,3193.85L7899.05,3193.85L7899.05,3198.81L7893.76,3198.81L7893.76,3201.11L7899.35,3201.11L7899.35,3206.34L7887.39,3206.34L7887.39,3186.4Z" style="fill:white;fill-rule:nonzero;"/>
            <path d="M7901.14,3186.4L7908.02,3186.4C7909.29,3186.4 7910.48,3186.57 7911.56,3186.91C7912.65,3187.25 7913.59,3187.75 7914.39,3188.41C7915.18,3189.06 7915.81,3189.88 7916.26,3190.84C7916.7,3191.81 7916.93,3192.92 7916.93,3194.18C7916.93,3195.17 7916.79,3196.02 7916.51,3196.72C7916.23,3197.41 7915.92,3197.99 7915.58,3198.45C7915.18,3198.97 7914.74,3199.41 7914.24,3199.77L7917.97,3206.34L7910.5,3206.34L7907.51,3201.29L7907.51,3206.34L7901.14,3206.34L7901.14,3186.4ZM7907.51,3196.21L7907.84,3196.21C7908.6,3196.21 7909.24,3196.04 7909.77,3195.7C7910.3,3195.36 7910.56,3194.79 7910.56,3194C7910.56,3193.2 7910.3,3192.63 7909.77,3192.29C7909.24,3191.95 7908.6,3191.78 7907.84,3191.78L7907.51,3191.78L7907.51,3196.21Z" style="fill:white;fill-rule:nonzero;"/>
        </g>
    </g>
    <defs>
        <radialGradient id="_Radial2" cx="0" cy="0" r="1" gradientUnits="userSpaceOnUse" gradientTransform="matrix(2726.44,5830.94,-5711.31,2670.5,-804.109,-2036.8)"><stop offset="0" style="stop-color:rgb(13,21,20);stop-opacity:1"/><stop offset="0.08" style="stop-color:rgb(28,105,97);stop-opacity:1"/><stop offset="0.36" style="stop-color:rgb(8,72,67);stop-opacity:1"/><stop offset="0.66" style="stop-color:rgb(13,21,20);stop-opacity:1"/><stop offset="0.8" style="stop-color:rgb(18,165,148);stop-opacity:1"/><stop offset="0.94" style="stop-color:rgb(13,21,20);stop-opacity:1"/><stop offset="1" style="stop-color:rgb(13,21,20);stop-opacity:1"/></radialGradient>
        <radialGradient id="_Radial3" cx="0" cy="0" r="1" gradientUnits="userSpaceOnUse" gradientTransform="matrix(2726.44,5830.94,-5711.31,2670.5,201.6,-1080.02)"><stop offset="0" style="stop-color:rgb(13,21,20);stop-opacity:1"/><stop offset="0.08" style="stop-color:rgb(17,28,27);stop-opacity:1"/><stop offset="0.33" style="stop-color:rgb(13,21,20);stop-opacity:1"/><stop offset="0.66" style="stop-color:rgb(13,21,20);stop-opacity:1"/><stop offset="0.8" style="stop-color:rgb(18,165,148);stop-opacity:1"/><stop offset="0.94" style="stop-color:rgb(13,21,20);stop-opacity:1"/><stop offset="1" style="stop-color:rgb(13,21,20);stop-opacity:1"/></radialGradient>
        <radialGradient id="_Radial4" cx="0" cy="0" r="1" gradientUnits="userSpaceOnUse" gradientTransform="matrix(2726.44,5830.94,-5711.31,2670.5,912.834,-811.021)"><stop offset="0" style="stop-color:rgb(13,21,20);stop-opacity:1"/><stop offset="0.14" style="stop-color:rgb(13,45,42);stop-opacity:1"/><stop offset="0.33" style="stop-color:rgb(28,105,97);stop-opacity:1"/><stop offset="0.66" style="stop-color:rgb(13,21,20);stop-opacity:1"/><stop offset="0.8" style="stop-color:rgb(18,165,148);stop-opacity:1"/><stop offset="0.94" style="stop-color:rgb(13,21,20);stop-opacity:1"/><stop offset="1" style="stop-color:rgb(13,21,20);stop-opacity:1"/></radialGradient>
        <radialGradient id="_Radial5" cx="0" cy="0" r="1" gradientUnits="userSpaceOnUse" gradientTransform="matrix(2726.44,5830.94,-5711.31,2670.5,1711.41,-1639.11)"><stop offset="0" style="stop-color:rgb(13,21,20);stop-opacity:1"/><stop offset="0.08" style="stop-color:rgb(28,105,97);stop-opacity:1"/><stop offset="0.33" style="stop-color:rgb(13,21,20);stop-opacity:1"/><stop offset="0.66" style="stop-color:rgb(13,21,20);stop-opacity:1"/><stop offset="0.8" style="stop-color:rgb(18,165,148);stop-opacity:1"/><stop offset="0.94" style="stop-color:rgb(13,21,20);stop-opacity:1"/><stop offset="1" style="stop-color:rgb(13,21,20);stop-opacity:1"/></radialGradient>
        <radialGradient id="_Radial6" cx="0" cy="0" r="1" gradientUnits="userSpaceOnUse" gradientTransform="matrix(-3259.42,7668.29,-4482.5,-1905.29,3479.06,-623.459)"><stop offset="0" style="stop-color:rgb(13,21,20);stop-opacity:1"/><stop offset="0.08" style="stop-color:rgb(28,105,97);stop-opacity:1"/><stop offset="0.33" style="stop-color:rgb(13,21,20);stop-opacity:1"/><stop offset="0.66" style="stop-color:rgb(13,21,20);stop-opacity:1"/><stop offset="0.8" style="stop-color:rgb(18,165,148);stop-opacity:1"/><stop offset="0.94" style="stop-color:rgb(13,21,20);stop-opacity:1"/><stop offset="1" style="stop-color:rgb(13,21,20);stop-opacity:1"/></radialGradient>
    </defs>
</svg>
